<mxfile>
    <diagram id="kFfa4r5cPHzUlptJlTEZ" name="PÃ¡gina-1">
        <mxGraphModel dx="311" dy="222" grid="1" gridSize="10" guides="1" tooltips="1" connect="1" arrows="1" fold="1" page="1" pageScale="1" pageWidth="750" pageHeight="1000" background="#ffffff" math="0" shadow="0">
            <root>
                <mxCell id="0"/>
                <mxCell id="1" parent="0"/>
                <mxCell id="2" value="zzz" style="shape=image;verticalLabelPosition=bottom;labelBackgroundColor=#ffffff;verticalAlign=top;aspect=fixed;imageAspect=0;image=data:image/png,iVBORw0KGgoAAAANSUhEUgAAAtEAAALoCAYAAAC+vKliAAAgAElEQVR4XuzdXWhcaZ7n+V8seTGhpl6cEZNpxoNXZTBS1sXIGA/tIeybLCiJ3YWB9OLMRFIvS0HLlAtMgl10Y+SpkTAsZdPGUM6xm70qSeNMs3Z3QQ0tNbRpsIIxizFyw1RGdE47hcHgXCLSmdmDYmtvzl70/4l5fHxOnHikCMWLvh8IQnHiOSdC1vGJn/56XnT48OEvJEXcuPXiZucfAADAQMlJiqIoymoHdEUul5OdhwAAAAPjf8hqAAAAAOBVhGgAAAAgECEaAAAACESIBgAAAAIRogEAAIBAhGgAAAAgECEaAAAACLTnQ3S1WtWRI0eUy+VeuZ05c0aNRiNrd5XLZeVyOZXL5aymAAAAGBJ7PkQ7y8vLiqJIURSpUqno4cOHunfvXtZuAAAA2IMI0QmKxaL279+vp0+fNrctLi62VaV2lelcLqepqSnV6/XgYwAAAKC/EaIT1Go1vXjxQocOHZIs/JbLZdVqNdVqNW1uburq1auv7VetVnX27FktLy9ra2tLo6OjunjxohqNhsrlsi5duqT19XUq3QAAAAOOEG1mZmaaVeLx8XFduHBB09PTqtfrKpfLKpVKKhQKKhQKmp2d1d27d1WtVl85xqNHjyRJx44dUz6f18mTJ7W5uamtra1mmxMnTqhWq2ljY0PT09OvvQ8AAAD0P0K0cdXjubk5SdLo6KiUUJVu5enTp3ry5InGx8eVy+U0MzOjFy9eqFar6ejRo81jnzhxgsGIAAAAA4wQ7cnn8/roo480MTGhxcVF1ev1xP7RaQ4dOqSJiQlVKpXmIMWNjQ2NjY0pn8/r5s2biqJIy8vLknUT8ftMAwAAYDAQomPGxsZ06tQpra2taXV1VYVCQaVSSeVyWfV6XfV6XUtLSzp16pTGxsZe2ffYsWOSdetoNBo6c+ZMcwDhysqKjhw5omq1qvfee09zc3MaHR3VyMhIyjsBAABAP4v2skqlEk1MTETLy8vNbbVaLZqcnIwmJiaiSqUSRVEULSwsRJIiSdHCwkKz7fr6eiQpWl9ff+WxpGhycjKq1WrNtv4x/GPvZfbvAQAAMFByFqKz2gFdkcvlZOchAADAwKA7BwAAABCIEA0AAAAEIkQDAAAAgQjRAAAAQCBCNAAAABCIEA0AAAAEIkQDAAAAgd7Yt2/f17lc7vtZDYFu2Ldv39cvX77MagYAANB3WGkFvcT5BwAABg7dOQAAAIBAhGgAAAAgECEaAAAACESIBgAAAAIRogEAAIBAhGgAAAAgECEaAAAACNQqRBck3ZY0lvLcqqSS93UUu92UlE/Y15e3dqWMdtsxZu+/kNFuXtJ0RhsAAACgqZOV6BOScnYbsW3vZezTTVVJH0qqZzUEAAAAQoSEaFc1jiRdzmjbkPRA0iFvW6mNKvWYpA1rs9pGFbkVvxJdsq9v27E37PlpSQuSlqlGAwAAoF0hIfq83Y9IWpI02aJtXtJJSU/t8ZikG1atdlVqdzynIOm6pLNWzS5bWM/qEtKuDyT9yl7/oaTTklYkXZI0Y18DAAAAmdoN0XlJByw8NyQ9lnQr1mbdqzRvSXruBdOiBdfHtv+SVYff9PYft/uK3d+R9D0vdO/Umh3bVckBAACAbWk3RI9IGs1o4/pEj0v6awvBTnzfmqSXet2kPRdZ4H3HAngnbFq4BwAAAHak3RC9ZSG0HVVJv7auGa5Pc3zfoqR9CfvessDuBigeseMBAAAAfaPdEO26QMxa146jkuZatL9nwXnKHtckHbf98nacsqSvvH0qVrE+ao+nOzC4EAAAAOi4dkO0LBjLqtKzkq60aOv6PV+wQYVVGzC47nWpuBrbpy7pnA1AjGzfc7swRd1TZucAAABAqCirAdBFnH8AAGDghFSiAQAAABCiAQAAgHCEaAAAACAQIRoAAAAI1CpEF2yKufnY9umEbd3gXj+K3W62sRR43tqVMtptx3yLmTxKbb4/AAAADLB2KtGnbJq6XjnhLb7ilgB/L2OfXilLOmNT/AEAAGBIZYXol7aE90ctqqvTXpV4wwK3qwT/sW2LvAp2FFtExbV1x2hVPXaLvhzytpXaqFKPee+j3QVc/OO6faYlLXjzSpckrdmxb0p61+7ftPt57xjzKceep3oNAAAwWLJCtCT9R7t3Kwn6SrbwStEqxXclnfaePyrp31g1edkWNhmJrWZ4XtJz2/+ELbaSVvnOSzppx5G1u2H7uSr1+dg+BVuC/Ky9RlnS5YzQWpD0M0njts+Svd8VSZckzdjXkvS2pPetAv372HEO2Ps64VX0Cxac3Xs+kPD6AAAA6GPthGi3+uB8QgW3bOHSrSrowq3zwPavSfrEKroNC82y45Uk3bfHjyU9tFDurHtV2y3b1wXYorV/7L3PklWCnXG7r9j9HUnf80J3O1a814x7Yd9fEvf9VyR9ZtvG7ZcI/z0DAABggLQTomVhuexVj514V4zl2PObas+6F5LnJI16z7k+0ePWteSO95zfThZmX+p1k/ZcZIH2nVhQj6tL+oWkT9sYzLjpLWWe9Fxc/D0DAABgwLQbomXh9Y8kTXjb3AC/EQu6Myn7tvLS6zbhbklV36qkX1vXDFcRj4fUoqR9Cfve8t5jTtIRO14rVWuXs4pyvJvIdrX7iwUAAAD6VEiIdiH2QsrzBesfHaIu6XdeP2o3ADBtcOG9WH/qmqTj1vc6b69flvSVt0/Fqr+uT/d0G4MLxyTdjrWJd1XZLv/95LfxbwYAAIAeCwnRshB7y3u8aoFwy6rH/8EGyoXMNHHV9nFdLa5YEE7i+hBfsKBbtQGD616XiquxfeqSztkAxMj2Pef1405SlfRbrwvISfveZWF6ucVc0VnqkhbtPf9n6xsNAACAARNlNUBXze/S4jX9ivMPAAAMJELM7vLnrM4atLgXcP4BAICBRIhBL3H+AQCAgRPaJxoAAADY8wjRAAAAQCBCNAAAABCIEA0AAAAEIkQDAAAAgQjRAAAAQCBCNAAAABCIEA0AAAAEIkQDAAAAgQjRAAAAQCBCNAAAABCIEA0AAAAEIkQDAAAAgQjRAAAAQCBCNAAAABCIEA0AAAAEIkQDAAAAgQjRAAAAQCBCNAAAABCIEA0AAAAEIkQDAAAAgQjRAAAAQCBCNAAAABDoDbuPMtoBAAAA8BCg0UucfwAAYODQnQMAAAAIRIgGAAAAAhGiAQAAgECEaAAAACAQIRoAAAAIRIgGAAAAAhGiAQAAgECEaAAAACAQIRoAAAAIRIgGAAAAAhGiAQAAgECdCtHzkqLYbUPSWNaOLeQl3ZRUatGmIOn2Dl5n2m5jkn5prwkAAAC01KkQLUmXJOW82xVJH+0gmDYknZFUzmq4TWOSJiTdk1SV9ETSe1k7AQAAAO2E6IJVhAtZDWMeSfqepBF7PGbV6UjSaux40171+pdW2Y5Xov1qt3v+sqQPJH1qx3f7uHZu3zFJa3Zzr31a0m8srMu2n9zG9wkAAIA9pp0QvV3HJH0jacuC6XVJZ61KXbYAnLeA+0eSxiX9SNK/SjhWSdIBC+Qjkr4j6aCki5I+kfS+VZPPS3pur3FC0g2vq8fbkhYkTdnjA5Iq3mvUbd/xhNcHAAAAmlqF6JJVc2uS5uw+sqpxkoVYn+hZC7kNL5i60HrHq1Ifk7RuIbguaSnl+E5D0s+tva9g7/m+PX4s6aGkoj3+0r4H2bZvLeD7nkoaFQAAANBCqxBdtopuUdItu89JWklp7/pEj1j7JQvFzqQXxCuS3rFjHko5nq8s6YGF3lZBXhbII2s754Xir2Ih+rstjgEAAACk6kZ3joaka5IuxGbWuGUB2w08PGLV5KctjuVb8UL6yZRZO15a1dsf4JgU+mtWiQYAAACCtROi6zZLhl9VzlK12Tlmrd9zxSrCR+35aW+A3yPrvzxmj2cTjjdtgwmdb72qslOX9DsbMChvIGNS2K5ZJXpErzokaTOhPQAAANDUTojerlULzu9ZwD1nA/0iq1Kfs+1VSb+2oL1iM2jE3bOBgK6bxhPbb8sGL7rZOa567SoW5JOmyEsaRFhIGGwIAAAAJIqyGuwiN0Vdqz7PnRJfYGV6l14Xr+qn8w8AAKAt3axEt8vNAuKqzM9bDF7sJH+BFX/hFQAAACATlUD0EucfAAAYOP1QiQYAAAAGCiEaAAAACNSpED0fm4JO1s/4ts160W3tvFY7bVqZt/7bpYTvFQAAAHtIp0J0r1UlfRg4l3UIN9d02ZsyL2n+aQAAAOwB7YTogk07t90Krrwq8E1vJg4XQks2N/SGPZ+Pzdhx05uGrmDzT7vtt+3YfpU5H3udadt+XdIHNvNHwVuMJfIWfkl6P29K+reS7njfzx3blhcAAAD2nHZCdKe8I+mBLcV9yVvNUJLelvS+rYx40J4f91YUPG/3P7VKcM6O9U7C67xn0+TlJBVtiXDZ4i6feHNBX5d01tqVJV1OeT//3LY9817DfX1QAAAA2HNahWhXDa5JmrP7aAcLknxpS3xL0v3Ycy+8ZbyPSfrCgmpD0pKtJHhA0g+9ivCqpM/UWtqS5W6lQrc64R1J3/NCu/9+ipL+0d6L07BtRQEAAGDPaRWiy14195bd53awEMpXXjCN27SFVpw5exxJWrflw/+lda3I4t5fvNtI3KT3i0HFqtouFPvvZzRlfwAAAOxRnerO8TRhW1HSvoTt7bhkgd3dpiT9Vwvi7Vj0fgH4mfV/jrtllWf3GkdsgGLcZsI2AAAA7GHthOi0LhG+TUmnvLCatz7P5W3MmPFI0gnvWPM2wG9L0u8knbbtUyl9oudjXU6+SaiAV6zCfNQeT8cGF/pqkr4TG0SYt21plXUAAAAMsXZCdDvKNkivYt0jtmxw32LWjgmqkha8Y5UkXbR+yB97fbXfSukT/bEFeNefe8mCfM0q4667xzlJN6zdBXucFPiTBhG6r/3BhgAAANhDoqwGfarUonrcafEFVuZb9LVGmEE9/wAAwB43KCEmPv/zRkpf525hxcLuGJTzDwAA4BWEGPQS5x8AABg4neoTDQAAAOwZhGgAAAAgUKdC9LzXV9m/Ja1uWLABgSXr03zbtvlfO9N2G5P0y9g0cwAAAEBPdCpEK2GBlHZWN6xK+jBlarkxSROS7lm7J5LeS2gHAAAA7Kp2QnTBZsXYyVRy/swal73trvp8WNJ1SR9Y8C7Yoiq/sfmhZdXrkzt8HwAAAMCOtROiO+G83Y/Y4ieTsee/ssVOPvG6gBywBVecui3gMi4AAACgh1qFaLcyYE3SnN2n9XOWrTLo94d28zjnLRAvWVX5saRbKcdwipK+tZUPfU9tuW4AAACgZ1qF6LL1ay5a6C1m9HOO94k+Yn2ZR7YRfIuSvpvVCAAAAOiF3ejOsSVpM6tRTM0q0QAAAEDfaSdE1yWdSZlBox0NSQ8kzVrXjqPWPaSVmlWiR2LbD20jkAMAAAAd1U6Ible8T3Rk80fLpqmTVaVnJV1J2L8maZ/XXSQ+iLCQMNgQAAAA6Ikoq0GPxBdYmW4xqBGDq1/PPwAAgFSdrER3mr/Air/wCgAAANBzVALRS5x/AABg4PRzJRoAAADoS4RoAAAAIFAnQ3RB0qo3M8dNb1DgbhmTdNvei/+14wYnxgctAgAAAG3rVIgu2NR0S96KhQ8kXeujoOoPTvQHLQIAAABB2gnRBasq+xXduClbBMWfPcN9fdTuxyRtWJV61TteySrGt+25DWvrnoti++Tt/ZSsTcH2dftI0puSrkv6wMJ9QdJpSb+xxV9kxzuZ8X0BAAAAr2knRGfJWxh94AVU2ddnJJUtqF63RVZytu2yV6X+QNKvbIXChxZ4C5J+Zguu5KzKPZXyHuK+knRO0ife3NLxhVrqCQu6AAAAAJlahWhXBa7ZMt01e5y24Emr5biLkl5a9VeS7kj6gaSD9njNAq5bIjzJireaYaiipG9txUTfU0mjKfsAAAAAiVqF6LJVgIuSbtl9rkWQbRVGi7akt1OzarGzmRBw65J+IenTDgxULEr6blYjAAAAoB2d6M7hqscnE0LuvFW0a1aJdorWbzlLVdIRb6Di+YQ27RyrZpVoAAAAYMfaCdF169tcb9Fm1SrR/mwX0xagKxZi93l9mk9L+kLSs5TjKWWKuqfe1+/a/TFJb6u1mlWiR2LbD2V0QwEAAABe006IbkfdQvOsN5vGrG2r2+2cpAv2XEnSxdhAxLiqpN96fbFP2owfDZs675Rtf0vSZwn7u+Duup/EBxEWEgYbAgAAAG2JshoMifgCK9MtBkli9+yV8w8AAAyRTlWiB4G/wIq/8AoAAAAQjEogeonzDwAADJy9VIkGAAAAOoIQDQAAAAQiRAMAAACBCNEAAABAIEI0AAAAEIgQDQAAAAQiRAMAAACBCNEAAABAIEI0AAAAEIgQDQAAAAQiRAMAAACBCNEAAABAIEI0AAAAEIgQDQAAAAQiRAMAAACBCNEAAABAIEI0AAAAEIgQDQAAAAQiRAMAAACBCNEAAABAIEI0AAAAEIgQDQAAAAQiRAMAAACBCNEAAABAIEI0AAAAEIgQDQAAAAQiRAMAAACBCNEAAABAIEI0AAAAEOgNSX8rKcpqCHTJ32Y1AAAAwPDhFxAAAIA9hu4cAAAAQCBCNAAAABCIEA0AAAAEIkQDAAAAgQjR/aVkAxWnsxoCAACgdwjR/WNe0npWIwAAAGAY7HSKu7ykm3acT6hEAwAA9L83shpgV3wraVxSUdL7WY0BAADQW4To3mtI+rl9XcxoCwAAgD5An2gAAAAgECEaAAAACESIBgAAAAIRogEAAIBAhGgAAAAAu26n80QDAABgwFCJBgAAAAIRogEAAIBAhGgAAAAgECEaAAAACESIBgAAAAIRogEAAIBAhGgAAAAgECEaAAAACESIBgAAAAIRogEAAIBAhGgAAAAgECEaAAAACESIBgAAAAIRogEAAIBAhGgAAAAgECEaAAAACESIBgAAAAIRogEAAIBAhGgAAAAgECEaAAAACESIBgAAAAIRogEAAIBAhGgAAAAgECEaAAAACESIBgAAAAIRogEAAIBAhGgAAAAgECEaAAAACESIBgAAAAIRogEAAIBAhGgAAAAgECEaAAAACESIBgAAAAIRogEAAIBAhGgAAAAgECEaAAAACESIBgAAAAIRogEAAIBAhGgAAAAgECEaAAAACESIBgAAAAIRogEAAIBAhGgAAAAgECEaAAAACESIBgAAAAIRogEAAIBAhGgAAAAgECEaAAAACESIBgAAAAIRovvLvKTprEYAAADoLUJ0fyhJ2pB0QtIfSLotqZC1EwAAADCooqwGbSpIWpV0U1I+qzEAAAAwyDoRosesEl2y7hwEaQAAAAy1ToRoAAAADBD6RAMAAACBCNE785akmqS3sxoCAAAA+KcA/ffWnePvCdIAAABAa36AjgjSAAAAQGtvSfqHWIB2t38gSAP/3eHDh79I+b/CjVvXb3b+AUBX5LIa4DX/s6T/S9I/S3ju/5X0v0r6TwnPAXtRFEVRVhugK3K5nPicA9AtDCwM958k/R+Svolt/8a2E6ABAACGHCF6e/69pGtekP7GHv/7jP0AAAAwBAjR2+eC9P9HgAYAANhbcocPH/7i888/H81qCHTD4cOHNz///PMfZLXDwKJPNHqGPtEAuinHhxx6iQ+5ocf1BT3D9QVAN9GdAwAAAAhEiAYAAAACEaIBDI1qtaojR44ol8spl8tpampK9Xo9a7ddUy6XlcvlVC6Xs5o22+ZyOS0uLmY175pyuayVlZXm1+2+fwAYdoRoAEOhXC5rfHxcFy5cUBRFiqJIpVJJP/rRj1StVrN27zv379/XxMSEKpWK5ufns5p3RbVa1dmzZ5uPS6VS898VAPBPA3+AnrDleTG8sk6Bjtja2orm5uaiubm5aGtrK7VdrVaLJicnm8tCLy8vJ+7v2i0sLERRFEXr6+uRpGhhYaF5X6lUoomJieax1tfXm6/j2kuKJicno1qt9sr29fX15v5/9md/1nxP7vWWl5dfWb7aHdu9vqRXvtf4+/uTP/mTaHJyMrpw4UI0NzfXfB9/+Zd/+dr3Hn+9iYmJqFKpvPZvtbCw8Mr7b/ff88KFC6/9O+wWri8AuolKNICB9+zZMz18+FAnT55UPp9PbFOv1zU9Pd2spq6vr2tmZia4a0IURTp//ryuXbum48ePa2trSwsLC1pcXFS9Xm9Wb5eXl7W1taXR0VFdvHhRjUYj8XjValV/8Rd/oeXlZd29e1fValXT09NaWFhoVqJLpZIWFxdVLpdVq9VUq9W0ubmpq1evpr4/Sfq7v/s7Xb58Wevr61pbW9Nf/dVfNd/vlStXVK1WVa1W9dvf/rZ53P379+vatWsaGRnR9evXNTExoeXl5deq4e38ez58+FA/+clPVKlU9OLFC62urr72fgFgUBGiAewJlUpFa2trevfddyVJR48e1dzcnJaWllIDbpzb17l165Y++ugjnT9/XqurqyoUCnr06JEk6dixY8rn8zp58qQ2Nze1tbWVeMwDBw4on89rdHRUT548Ua1We61NvV5XuVxWqVRSoVBQoVDQ7OxsM3Q78ffn2heLRU1MTDR/yTh06FCzzdjYmG7fvq3V1VUVi0Wtra2pHe38e+7fv1/FYlHFYlH79+/X06dPM44KAIODEO1xg5LcIJq0bQAGz+bmpiYmJlQsFrOaZsrn85qdnZUsSI+MjOjMmTNqNBp6+vSpnjx5ovHxceVyOc3MzOjFixeJ4VjSK4E2Ta1W04sXL9pqG8oNFnzw4IFqtZrm5uaydpHa/PccHR3VyMhI6vMAMMgI0QAG3sGDB3X8+HE9ePAgtarcqtK7Ha4bQ61W0+TkpG7duqV79+7p0KFDzW4YboDjxsaGxsbGsg6ZqpuV3Pv372tyclKXL18OCryd/vcEgEFDiA4Un0LL7//nT0nlT63lti8uLvZ8uipgGLnKsAuyzuLioo4cOaJqtarx8XFNTk7q/v37kqTHjx/r1q1bmp2d1ZtvvqkDBw40u124rgpp6vW6pqamtLi4qEKh0OwvPDo6qmPHjkmSHj16pEajoTNnzjSr1NtVKBRUKpVULpdVr9dVr9e1tLSkU6dO7SicyyrhrlLu/k3a0erfM61fOgAME0J0gEajsePBRFEU9Wy6KmCYlUolVSoVXblypfnL7N27d/Xpp59qbGxMhUJBKysrzV9qT5w4ofX19eZ0badPn9aLFy9ULBa1tLSkycnJ1NcqFAq6fv267t692zzWwsKCSqWSxsbGdOPGDc3MzGhkZESbm5u6fPnyjoPl/Py8SqVSs49xqVTqyLVkampK+/fv1/j4uM6ePasf//jHzV8mXIV/ZmZGZ86c0e9///vmfln/ngCwF2TNErRnuCmn/Kmf/G1u2qb49FKRTRHlpoZyj92UTvFpofDfMQXV0Ms6BYCu4foCoJuoRAfo5GAiAAAADC5CtMcN3mllNwcTAQAAoD8Roj0jIyMaHR3V0tJSc1CgP+frbg8mAgAAQP/K6la2p8SXsY33ZY4v9euW6Y3aXOoXr6LP4tDLOgWAruH6AqCbcvYhl9UO6IpcLic7DzGcuL6gZ7i+AOgmunMAAAAAgQjRAAAAQKA3shoAwHbt27fv61wu9/2sdkA37Nu37+uXL19mNQOAbaFPNHqKPotDL+Lnix7i/APQNXTnAAAAAAIRogEAAIBAhGgAAAAg0BsM/EEvMfAHAAAMKkYVopc4/4YbP1/0EucfgK6hOwcAAAAQiBANAAAABCJEA+iFgqTbksZSnluVVMpoFzdvf76/KSmf1ThBqY19Q94PAGCIsWIhgGGQl/QdSeOSqlmNU5TtBgBAJirRAPpB3qrAkaTLGW1cxTmyr/OSrkm6IKliFWX/eJFty+Iq0W+2eJ3Lkj6Q9CnVaADY2wjRAPrBebsfkbQkabJF2wPW7oSkU5IOSvpI0i3bVo4d74SkG9sIvUmvc1HSJ5Le30HFGwAwBAjRAHotb4F1SVJD0mMLxGkeWLuKpM8Snk863kNJxxLatpL1OgCAPaxViA4Z+LOa8OfSafsTaC8xUAjofyOSRrMaeTYzno8fryHpeYv2abJeBwCwhw37wEIGCgH9b6vDgTV+PFeZftpiHwAAgoR052hn4E+a+CCfae+5krfdVY1d+08CBgUlYaAQ0P8a1nVi1v5PHpU0l7VTC67y7B/vuKRHWTsCANCukBAdMvAn7j37UMtJKko6ad0oxiRdsmmpRqytex1J+i+2T6eqyQwUAvrTPbvfsvB7JaN9lqt2vyVpXdLZDv3/3pL0Db90AwDa7c4ROvCnlbqkM/b1lKQvJD2z4y551SN14c+vDBQC+kNd0ofe44ZdF87odX47//n4MfznWh0vjd/9q93XAQDsUe1WokMH/sSt2H3SnK1zVt2JrGI06oXoTvaTVBeOBwAAgD2o3RDdauBP2nOHYo8Xve4cP/P+FHrJtrvblKSvEo4HAAAA9IV2Q3SrgT/xQTyygHxK0n17PB8bTPiNpJoN9DnhBer5NqakAwAAAHqq3RCtjIE/ixakXbeMig3kcf0LP7Z9IgvPS9bPsCppwdq7bh4XLZjvFgYKAQAAIFiU1QDoIs6/4Zb283WLNMUXZNqtRZpCFllyU2N2+q9kY/YeCoHPoX1cXwB0TbuzcwBAN5ySdKdD0891Q17Sd2wazt18j9XYjCAAgD4T0p0DADrppaS/lvRRiwrvtDerz4ZVaN1iTH9s2yKvgh1ZhdtVcOMLPSUt3JRvsRjTNUkXrMtZqc3jpR3fX2yqIOm6LfS0IukPJa3ZbdUeu0p0yb6+Hft3kFfRd5XydqvrAIAdIkQD6KX/aPdHE54r2ViKos3cc1fSae/5o5L+jQ1OXrZ55UdstqApa3PeW+jphKQbLUJm0mJMH9mc+CdsjIe/6FTW8ZykxaYk6Zwt9DQt6WtJb/8FpLQAACAASURBVNsYkSl77PtA0q/sdR96/w4/tfeVs8Hf7wgAsCsI0QB6yS2yNJ/Q/7dsgbJuj+OLL7nFk2oWRle92YLkVXHdLEGPLYAWlSxrMaakRaceSjqW0DaNW2yqrtd9ad9LkjV7X26mJNn390PrDiP7/llECgB2SasQ7f+Z0L/txqCfTirF/ry7EwwEAjqv7AVmX7wbxHLs+XYXT1q3/bdsas60haOyjhdfdMoP7K20WmzK91WLEL1p799XlPRmSnsAQJe1U4k+4S2EMmKVmHb6Ae41biBQUoUJQGt3JP2RpAlv23t2P2LXn5mUfVt5aYMC/QWdVrQ98YWlXGW6HWmLTe1EjYWpAKB32gnRPld5cdWYUqxK7cJ10kCatO3xqaamvamkXPtWA3rGYgNyCrbNDTh6V+EYCATsrqqkX9sgviQF6x8doi7pd17/YXdd2G4RIL6w1FFJx23RqFbSFpvaqfj3N0WfaADYPaEh2gXETftAuuRVeWa8D5ekgTSFFgNsfuf1U3zL7kfsJusL2GpAjz8gRxZ2r9jrbAcDgYDdd88G8Tmr9gv7lv3i+h+s8hsyV/NV2yey68gVbxGo7bhq91vWTeRsG1PfpS02VZO0z76372ccI83HXjHjLfpEA8DuilK2p/WJ9isqvpJXQU5bMCFre96mrfpjO17J237TqyC5x9NeJdoF6njf5O30VU57n/6xWr1uvB/2tDdwyq88hyz4MKzSzj8MB36+u6eT4z+GBecfgK5ppxLt94mO9yf051Vd97anDaRJ2/7IFjQYk/QHkv6LVaBGvWmrWg3o8QfkFK26sxMMBALQ7+Ldzm7YX8sYlwEAu6CdEJ3GVYrdHK4nYs+nDaRJ2v5M0j9K+h8l/T8WTA/ZIKNHgQN6ajaYaKcYCASgnzVsujxX4DjSRtcSAECH7CRE+/KxQT9pA2nStjck/TfrL7xpodp5Fjig55kd1/WPPr2NyjQDgQAAAJBqJyH6sQXemqT/LOmvJH3Pul6kDaRJ2y5J/7c3+Kdh2554X7c7oKfhLdUbWTjPmv81joFAAAAAaImBF73DQCDOv2GX9vP1x1P4t07/fwgZvOvekxsg3Sks0tQ7XF8AdBUXmd0THwi00eaH+zDj/BtuWT9fNwvQduduztJuiM5L+mUb7baDoNw7WecfAOwIFxn0EuffcMv6+cZDdHw6S1mF2A1kvmlhN161TluMyQ/Rro1fBZ9P2TfteK2kLdLkpgpdZZGmXZd1/gHAtu2kTzQAdFrDFiFyK40WbCaeij2es7ESOVs05ae2/by3QFJ8Maa4A96iTackHZT0kS30csKO22pxpzQs0gQAewghGkC/cfPG521F1OfeAGRXwZWkO5J+KOmwVXHv2/bHFkDdKqhxDyysV1IG9ropNJesnTvesYS2aeo2/VzSnM1ftpjtZ80bXP3AthXs+7xjj1cZkAwAvdcqRLfqS+j/CTZtZcN2Buck/el2J0ptvG67fSQB9Iab4vKgVaRdOFbKIkbOul17tqxi7S/Q5MuarSdrcac0LNIEAHtIJyvR/sqGI7btvYx9Oq1s1Z+GAAyqhnXZ+J9iXTlk4dZdX/zVSV9a1TptddUQIYs7xbFIEwDsESEh2h80czmjrftT5CFvW6mNKvWYDaaJDxpql6tEv9liANFl63f4aYc+4AB03iNJ/1usK4ckTVpYllWpy5I+jy1i5K4j2/0LV8jiTj4WaQKAPSQkRPsDbZbswyxN3gbVPLXHYzYw54RXRXLHcwqSrtsiKm7Q0OU2uoS0kjSA6KIN8nmfJXKBvvXM+iH7XTlk/3d/Zr8YH/AWYbpqjyOrXF+xa8h2tbu4k49FmgBgj0mbAihpaqikaajS+kTPe8eK91V2i4wc8I4TX3hkO3OrxivRrirkfy/0ie4vTEE13Lb78036/9/OmIe9gEWa2rfd8w8AMrVbiY4PtEni+kSPS/prbyS5EvatWR/GuEl7zlWT3mkxwr4dWQOIAPSfkv3//1XK7BZ7TXz+6Rs2bR7/NgDQQ+2G6PhAm1aqkn5tXTNcpSS+rz8gyHfLArsbGHSkjT+hAhguZa9LV3z7Xhw43LDvm+siAPSRdkO0GyjoD7SZa9H+ngXnKXtcs4E5R23/WftA9EecV6xifdQeT/MnSwAAAPSjdkO0LBjLqtKzNnAnTcMG1Vywvo1VG5iz7s2B6gbuOHX7E+UN+5PlhS79yXLLRs0zOwcAAAC2jYEX6CXOv+HGzxe9xPkHoGtCKtEAAAAACNEAAABAOEI0AAAAEIgQDQAAAARqFaLbWYkwlL/i2Ly3omCvVyJrtTridlZOBAAAwBBrpxJ9wpvkf8SW6i5pe9IWS+jnRRSqkj7swlR7AAAAGGBpUwC5SnQ8MPsV5DFJG3YMf2GU+DK18Yrz/x57zq9Ex/d1r+8qwknPtSvpffkV91VJfyhpzW7usatEl+zr29Z+w5tr2j/OTWvDPNTZmIJquPHzRS9x/gHomnYq0T4XJDft6+u26IpboveyBdX3JD237UVJJ2PdIT6RdEnSjKSV2Guct/sRq4Lf8MLoO7ZyYs72nw3sApL0vmSLunxiofprSW9LWrAVF7+OHeMDSb+y9/dQ0mnb/lNvueIH9l4BAAAwhNoJ0ete5bZmKxGWLYS+tOqrJN2R9ANJB2P7162rRjvdIfLWXWTJunY8tqB6zJ7/UtIj+/p+i+O0o9X7+tK+1yRrtkS5Wwpd9gvCD+3fQPZv8lnK/gAAABhw7YRov090zqscFyXt89rVJH1lX7s2od0u8pJGvccNqxw7X7UIt+1o9321ep1Nb+lypyjpzZT2AAAAGDLthOg0NatEO/Egueh1m/hZm/2DGxZSHVeZ7qTtvK8s/i8QAAAAGHI7DdH7rN+wrG/wF5KexQYfStI3bVaQXeXZ9XU+Kum414Vjp7b7vrLUJf3O6x89RZ9oAACA4bWTEF23AXkXvK4RFy0If2xB2O9HHe97/FTScizUStJVu9+y/thnbZq5Tkh7X+4XghVJ3886SIqP7d8gkvQWfaIBAACGG1MAdV4pNuUf0nH+DTd+vuglzj8AXcVFZufi809vdKiv9V7A+Tfc+Pmilzj/AHQVFxn0EuffcOPni17i/APQNW9kNQCAHSLIAACGDiEaQLflshoAXcIvcAC6ZiezcwAAAAB7EiEaAAAACESIBgAAAAIRogEAAIBAhGgAAAAgECEaAAAACESIBgAAAAIRogEAAIBAhGgAAAAgECEaAAAACESIBgAAAAIRogH0u3lJUey2IWksa8cW8pJuSiq1aFOQdHsHrzNttzFJv7TXBAAMCUI0gEFwSVLOu12R9NEOgmlD0hlJ5ayG2zQmaULSPUlVSU8kvZe1EwBgcBCiAfRSwSrChayGMY8kfU/SiD0es+p0JGk1drxpr3r9S6tsxyvRfrXbPX9Z0geSPrXju31cO7fvmKQ1u7nXPi3pNxbWZdtPbuP7BAD0KUI0gEF0TNI3krYsmF6XdNaq1GULwHkLuH8kaVzSjyT9q4RjlSQdsEA+Iuk7kg5KuijpE0nvWzX5vKTn9honJN3wunq8LWlB0pQ9PiCp4r1G3fYdT3h9AMAAIkQD6IWSVXNrkubsPrKqcZKFWJ/oWQu5DS+YutB6x6tSH5O0biG4Lmkp5fhOQ9LPrb2vYO/5vj1+LOmhpKI9/tK+B9m2by3g+55KGhUAYCgQogH0QtkqukVJt+w+J2klpb3rEz1i7ZcsFDuTXhCvSHrHjnko5Xi+sqQHFnpbBXlZII+s7ZwXir+KhejvtjgGAGAIEKIBDJKGpGuSLsRm1rhlAdsNPDxi1eSnLY7lW/FC+smUWTteWtXbH+CYFPprVokGAAwxQjSAXqrbLBl+VTlL1WbnmLV+zxWrCB+156e9AX6PrP/ymD2eTTjetA0mdL71qspOXdLvbMCgvIGMSWG7ZpXoEb3qkKTNhPYAgAFEiAYwiFYtOL9nAfecDfSLrEp9zrZXJf3agvaKzaARd88GArpuGk9svy0bvOhm57jqtatYkE+aIi9pEGEhYbAhAGDARVkNgC7i/Btu/fTzdVPUterz3CnxBVamd+l18ap+Ov8ADBkq0QCGmZsFxFWZn7cYvNhJ/gIr/sIrAIAhwm/q6CXOv+HGzxe9xPkHoGvesHsuNAAAAECbXIjOZbQDuoVf4AAAwMChTzSAfjcfm4JO1s/4ts160W3tvFY7bVqZt/7bpYTvFQDQhwjRANBaVdKHgXNZh3BzTZe9KfOS5p8GAPQRQjSAXirYtHPbreDKqwLf9GbicCG0ZHNDb9jz+diMHTe9aegKNv+0237bju1XmfOx15m27dclfWAzfxS8xVgib+GXpPfzpqR/K+mO9/3csW15AQD6FiEawDB4R9IDG99xyVvNUJLelvS+rYx40J4f91YUPG/3P7VKcM6O9U7C67xn0+TlJBVtiXDZ4i6feHNBX5d01tqVJV1OeT//3LY9817DfX1QAIC+RYgG0AuuGlyTNGf30Q4WJPnSlviWpPux5154y3gfk/SFBdWGpCVbSfCApB96FeFVSZ+ptbQly91KhW51wjuSvueFdv/9FCX9o70Xp2HbigIA9C1CNIBeKHvV3Ft2n9vBQihfecE0btMWWnHm7HEkad2WD/+X1rUii3t/8W4jcZPeLwYVq2q7UOy/n9GU/QEAfY4QDaDfPU3YVpS0L2F7Oy5ZYHe3KUn/1YJ4Oxa9XwB+Zv2f425Z5dm9xhEboBi3mbANADAACNEAeimtS4RvU9IpL6zmrc9zeRszZjySdMI71rwN8NuS9DtJp237VEqf6PlYl5NvEirgFaswH7XH07HBhb6apO/EBhHmbVtaZR0A0AcI0QD6XdkG6VWse8SWDe5bzNoxQVXSgneskqSL1g/5Y6+v9lspfaI/tgDv+nMvWZCvWWXcdfc4J+mGtbtgj5MCf9IgQve1P9gQANCHWDEOvcT5N9wG9edbalE97rT4AivzLfpaI8ygnn8ABgQXGfQS599wG5Sfb3z+542Uvs7dwoqF3TEo5x+AAdWpi4y/UEF8EYPd4i+KkLQM77TdxiT9sgfvD6/r1PmH/sTPF73E+QegazrVJ7pgfQGXvNHoDyRd66OgOiZpQtI96xf5xBZOAAAAAIK0E6LbWZZ3ykbQ3/O2ua/dCPVWy+Detlv8z6j+8rxuH/dnV9dnsOAtz+u8mbAM72lJv/EWNVi11cZ2o88jAAAAhkg7ITpL3sLog4RVt87YyPqChdorKcvgfiDpVzav6kMLvAWbg3Xc9lmysN6OrxKW4T3grSAmGyn/3FtdDEB/mvd+mfZvSasbum5lJbp3AQC6qVWIDl2Wt9WiAUVJL+3DTbYM7g+8qZzWLOA2LIwnWdnBamZFSd/GVi2TLeLAimFA/4svkNLO6oZVSR+mTC1H9y4AwI60CtGhy/K2CqPx1cVqsdXB4svyyj74fiHp0w4MVCxK+m5WIwC7rp3uYln8mTUue9td9fkw3bsAAJ3Wie4crnp8MiHkummbalaJdorWbzlL1ZbLdQMVzye0aedYNatEAxg+7rowYt2+JmPP070LANBx7YTodpblXbVKtP/n0GkL0BVvNS/Xp/m0pC8yVuRK6sP41Pv6Xbs/JulttVazSvRIbPuhjG4oALojtLvYQqw/tBuAnLdAvGS/0D+2v5y1QvcuAMCOtROi21G3D79Z70Nu1rbV7XbOlr+NYkvtpqlK+q334XrS+i82bOq8U7Y9bXne+DK88SpTIaEaBWB3hHYXi/eJPmLXiJFtBF+6dwEAduyNrAYB6hmzZ7iuGXFluzkrsa+TPlTTjiUbSOT47+eOpJ9Ypaphzz3IqLAD6G9b2/hrEt27AAA71qlK9CDwR+D7I/MB9E473cVacWMyZq1rx1HrHtIK3bsAADu2l0K0vMp2VdLPM7qTAOgf8T7RkQ1clvfL8JaF6SsJ+9O9CwDQcVFWA6CLOP+GW7/+fOMLrEy3GNSIwdWv5x+AIbDXKtEAILp3AQA6gd/U0Uucf8ONny96ifMPQNdQiQYAAAACEaIBAACAQIRoAIOgYCujupk5bnqDAneLv4pq0oqqbnBifNAiAGAIEaIB9LuCTU235K1Y+MBWLu2XoOoPTvQHLQIAhhQhGkAvFayq7Fd046ZsERR/9gz39VG7H5O0YVXqVe94JasY37bnNqytey6K7ZO391OyNgXb1+0jSW9Kui7pAwv3BUmnJf3Gm3t+VdLJjO8LADDACNEA+lnewuiD2OJIDVvpsGxB9botspKzbZe9KvUHkn5lKxQ+tMBbkPQzW3AlZ1XuqZT3EPeVpHOSPvHmlo4v1FJPWNAFADBECNEAesFVgWu2THfNHqcteNJqOe6ipJdW/ZWkO5J+IOmgPV6zgOuWCE+y4q1mGKoo6VtbMdH3VNJoyj4AgAFHiAbQC2WrABcl3bL7XIsg2yqMFm1Jb6dm1WJnMyHg1iX9QtKnHRioWJT03axGAIDhQogG0M9c9fhkQsidt4p2zSrRTtH6LWepSjriDVQ8n9CmnWPVrBINANhDCNEAeqlufZvrLdqsWiXan+1i2gJ0xULsPq9P82lJX0h6lnI8pUxR99T7+l27PybpbbVWs0r0SGz7oYxuKACAAUaIBtDv6haaZ73ZNGZtW91u5yRdsOdKki7GBiLGVSX91uuLfdJm/GjY1HmnbPtbkj5L2N8Fd9f9JD6IsJAw2BAAMGSirAZAF3H+Dbe98vONL7Ay3WKQJHbPXjn/APQAlWgA2Dl/gRV/4RUAwBDjN3X0EuffcOPni17i/APQNVSiAQAAgECEaAAAACAQIRoAAAAIRIgGAAAAAhGiAQAAgECEaAAAACAQIRoAAAAIRIgGAAAAAhGiAQAAgECEaAAAACAQIRoAAAAIRIgGAAAAAhGiAQAAgECEaAAAACDQG5L+VlKU1RDokr/NagAAAIDhwy8gQDr+f6CXOP8AdA3dOQAAAIBAhGgAAAAgECEaAAAACPRGVgMA2AEGLqOXGLgMAH2skwGhZMebzmoIYE/o5PUFANBBdOfoH/OS1rMaAQAAAMNgp5WivKSbdpxPqEQD8Oz0+gIA6BL6RPeHbyWNSypKej+rMQAAAHqLEN17DUk/t6+LGW0BAADQB+gTDQB7AwOXAaCDCNEAMPwYuAwAHUaIBoDh5QYuL0j6NKsxAKB99IkGgOHGwGUA6AJCNAAMLwYuA0CXEKL7S1lSLqsRAAAAeos+0QAAAEAgQjQAAAAQiBANAAAABCJEAwAAANh1UVYDANgmri8A0KeoRAMAAACBCNEAAABAIEI0AAAAEIgQDQAAAAQiRAMAAACBCNEAAABAIEI0AAAAEIgQDQAAAAQiRAMAAACBCNEAAABAIEI0AAAAEIgQDQAAAAQiRAMAAACBCNEAAABAIEI0AAAAEIgQDQAAAAQiRAMAAACBCNEAAABAIEI0AAAAEIgQDQAAAAQiRAMAAACBCNEAAABAIEI0AAAAEIgQDQAAAAQiRAMAAACBCNEAAABAIEI0AAAAEIgQDQAAAAQiRAMAAACBCNEAAABAIEI0AAAAEIgQDQAAAAQiRAMAAACBCNEAAABAIEI0AAAAEIgQDQAAAAQiRAMAAACBCNEAAABAIEI0AAAAEIgQDQAAAAQiRAMAAACBCNEAAABAIEI0AAAAEIgQDQAAAAQiRPeXeUnTWY0AYBu4vgBABxGi+0NJ0oakE5L+QNJtSYWsnQCgDVxfAAB9Kcpq0KaCpFVJNyXlsxoD2BO4vgAAhlYnPuTGrFJUsj+38kEHQFxfAADDrBMfcgCQhOsLAPQp+kQDAAAAgQjRO/OWpJqkt7MaAkAgri8AgKH0lqS/tz+3/j0fdAA6iOsLAGAo+R9wER90ADqI6wsAYCi9JekfYh9w7vYPfNAB2AGuLwAwIOgTHe5fS/oXKc/9C0nHUp4DgCxcXwAAQ+3fSfo6ViX62rYDwE5wfQEADDX/g44POACdxPUFADDU/p2k3/MBB6ALuL4AQD87fPjwFymDWLhx6/rNzj8MKa4v3Hp54/oCoJtykqIoirLaAV2Ry+Vk5yGGE9cX9AzXFwDdxOwcAAAAQCBCNAAAABCIEA0AAAAEeiOrAQAAQL85fPjwF59//vloVjugGw4fPrzJwEL0FAN/hh7XF/QM15ehx/UFPZPL5ejOAQAAAIQiRAMAAACBhiJENxoNnTlzRmfOnFGj0chq3hHValVHjhzRyspKVlNJUrlcbrYtl8vK5XIql8tZuwEYACsrK8rlcs3b4uJi1i4AgAE3FCG6F8bGxrSxsaHp6emspqpWqzp79mzzcalUUhRFKpVKLfcD0P8WFxd15coVVSoVRVGkWq2mcrm8q7/UAwB231CGaFfp/fM//3MdOXJEuVzulYqxXzWamppSvV5/bd9cLqcjR46oWq02K90ffvihPvzwQx05ckSrq6vNSnT8eX/fer2uc+fO6cmTJ5qZmdHi4uJrleh6va6pqanm67r36lfYf/7znye+XwC9U61WdffuXV24cEFjY2OSpEKhoNXVVd28eVP5fL7Zzl2L/P/78b9o+deGpOtOtVptef3yn/NDfNrrAwC2byhDtPPll19qY2NDCwsLWlpaUr1eV7Va1ZUrV7S8vKxarSZJ+vjjjyWvYry+vq6trS0dP35c165da34QffbZZ/rFL36hjY0N/eAHP3jt9dzztVpN+/fv17Vr1zQyMqLr169rYmJCy8vLmp+ff2Wfer2u6enpZnV6fX1dMzMzr3zIPXz4UD/5yU9UqVT04sULra6uvvbaAHbfo0ePJEnHjh1LbVOtVvX+++/rwoULiqJIy8vLOnv2rKrVauo+Pv+6Iyn1+lUulzUzM6P19XXVajVtbm7q6tWrajQaunbtmo4fP66trS0tLCxocXGRX8YBYIeGep7oQ4cONe/v3r3b/NCRpJmZGS0vL78SSB89eqT9+/drfHxc+XxeN2/elKwiLEnHjx/XwYMHX3sdxz2fz+c1OzurK1eu6NmzZ6ntJalSqWhtba0Zro8ePaq5uTktLS3pnXfekSTt379fxWKx+fXTp09bHhNA/4gH7ampKS0tLenOnTs6ffp0xt7J152k69f9+/c1OTmp8fFxFQoFlUolPX/+vHn9unXrliTp2rVrr/0yDwAIN9SV6NHR1+dgHxsb06lTpyT7IPK7T/QinG5ubmpiYqIZkpOMjo5qZGQk9XkA/evp06ev/CK8E2nXr0ajoefPn2ttbU3FYlG5XE6XLl3S5uamoijS7OysZEF6ZGSE/tpAn9nu4ORGo7Hrf1nqxWQO/WqoQ3Sa+fn5ZtcJ2Z9Hq9WqDh06pBcvXrxSse620dFRPXnyZFdfE0BnuOqyqzYn6fR1Jen69ezZMx04cECTk5Oq1WqKokhRFGl1dbVZlXaDHicnJ3Xr1i3du3cv66UA7IKdDE6+evXqro9xcH+p98d97FV7LkT7A3dKpZIWFhaaVaL4B+Li4qKmpqb01VdfZRz1n9y6dUuPHz9WvV7X0tJSZvcPSRofH9fk5KTu378vSXr8+LFu3bql2dnZPX9yAv3OVYbdL+LyBgq7D8D4dWV1dVUvXrzQ6dOnVSwWX+mi5a4DaVpdv959912tra2pUqk034OrULmvC4VCsytH0l/qAOyudgcnLy4uvjageGVlRZcuXdLa2pp+9KMfNScz8Ccq8AO2X+12x/Of91/DD/DuuuOev3Tp0muV6L06qHnPhehSqaTl5WWdOHGieTLMz8+rUChobGxMN27caP6Z9O7du7p+/brefPPNrMNKkubm5vSb3/ym+Wfby5cvK5/P6+DBgzp+/LhmZmZ05swZ/f73v2/uUygUtLKy0jxJT5w4ofX1daa/AwbE/Py8Lly4oPHxceVyORWLRY2OjuratWvK5/MaGxvTp59+qitXriiXy+nKlSv69NNPNTY2pkKhoNnZWV26dEm5XPbq1K2uX/5z7j2cP39ehUJB169f1927d5vXmIWFBa4xQB9oZ3ByuVzW8+fPtbW11Zxg4OOPP9b09LQWFhY0OTmpv/mbv9HBgwd18eJFjY6Oamtr65VBzG5ShYWFBSUtle5mDqvVaq8MTI6Lokh/+qd/+sq2vT6oOcLObG1tRXNzc9Hc3Fy0tbWV1RweSa//b8YwyToFgK7h+jL0sk6Bvre8vBxNTExElUolq2m0sLDgzuloYWGhuW1ycjKq1WpRpVKJJiYmouXl5SiKoubj9fX1aHl5OZIUra+vR1EURevr683HtVotmpycbB4zir0vv22UkHn89+De09zcXFSv16O5ublI0lDmI0nRnqtEAwAADArXVUJSc1xDklqt1lyTIpfLaXx8XE+ePNHm5qYkpU5iUKvV9OLFi+aMZiH2+qBmQnQH0MkeAACEyhqc3Gg09ODBA83Nzen8+fOJbZxisdhck8INLo6iqLmyctokBvGxGSHy+fyeHtRMiAYAAOiBrMHJknTgwAFtbm5qa2tLq6urWltbSzyWG3/14MEDNRoNraysNFc6PXbsmCYmJnT//n01Gg0tLS0193Nht1wuq16vNydHOHXqVHOwYyt7fVBzVrcPoGvoszj0sk4BoGu4vgy9rFNgYLg+y+7m9yF2fZslRRMTE9GPf/zj5vOuv3K8f7O/Lek1XP9q//mkPtdRrP90lDIOzD922nuPH3fQSYpydhJmnahAV1g/r+xpCTCouL6gZ7i+DD2uL22qVqt6//33deHCBU1PT2tlZeWVmYIQLpfLDfey3wAAAHud6zYyMzOjmZkZSdLy8jIBeoeoRKOnqBQNPa4v6BmuL0OP6wt6JpfL6Y19+/Z9ncvlvp/VGOiGffv2ff3y5cusZhhQXF/QS1xfAHRTzjp785s6eoXzb7jx80Uvcf4NNyrR6JlcLscUdwAAAEAoQjQAAAAQiBANAAAABGKKOwAAMHAYVUHJlQAAIABJREFUuIxe2rdv39diRSf0GOffcOPni17i/Btu/HzRSxHdOQAAAIBAhGgAAAAgUKsQXZB0W1LSmpAFSauSShntOmnMXqeQ0W5e0rR9XZJ0U1I+Y59QeTtuKaNdu+8Z2Gvavb44JfvTrbtNa3C0cx3aresoAKBDBmlgYVXSh1mNYsp267SGpDNZjQB0REnSDUnjdh3IS7pmz61k7NsPunUdAgD0UEh3Dld9jSRdzmgz71WM5r3n07a7ylNk9wWryKzZbVXSH3pVXVfZ+WVsn2lJC5KW7Wu/AuS//8ircrlqcdJzafxKdNr+BUnXJX1gH/RUo4F0adeXvKRZSVcsQMt+ib0m6X/x/l/5ler4/3n3/9mv9savL4UW16cxSRuxa00Idx16M+X6mLfv+QNJn1KNBoDBEBKiz9v9iKQlSZMt2h6wdicknbIPhZK3fUTSd2y7+wBZtOVZlyT91I7ztoXiKUlfx15jTtIT26ds+6xIuiRpJqFC5b//E1bZch9W70h6YMe6ZB/aIV1AkvbfknRO0icW6OtZBwH2sLTry0FJP5D0KNbe/WWqbv+Pb9j/65HY8Vrxry/jKdcn98vwWe9acznw+hAXvz4elHTRrhXve78sAAD6WLshOm8X/iWrAj2WdKtF+wfWriLps4TnG5J+bh8WByV9z9rKwu+iff2lpFrC/vIqSJJ0R9IPW1SIkt7/Q0nH7PkvvQ/p+ynHaGWn+wN7Wdb15asW1wFJKtr/58e2/5L90v5mi33U4vriX5/GbZu7Pt2x65UL69uRdX0EAAyAdkP0iKTRrEaezYRtZfvw2IoNDCpK2pfQXhkfnpt2rHbkY++/Iem59zjrQzrLTvcH9rKs68ubdp1IE9+3JullSluf//827fokq4rXbHvF/vLU6v1kSbo+Auic3Rq4PB/Qdje0O5lBv73vgdVuiN7q0IV/xf4kOiLppJ247X7gxY161aBWQVwWmv337ypfAHqv1fXlmaQvvL8aOQXrX1xI2DftelDMqE4nXZ9kVfERey4n6QhdLoCh4Q9c9v//D2LI9Lu5YRe0G6IbVqVxfYWPWp/kENOxwTrfWoCu2Qee+7PptH04/rOU4ziT3j7vWiUp7cRxlWf//R9P6GcJYPe1ur647hkXvKqSG0fx3P7P1+z/81FvIGLZKs2y64MsiL+d8PpqcX2q2C/sR7122xlcCKB3djpwedqrUm/YtSg+kYFSBjgrNnnCzViVPG3gcsm6rW5I+j/t5lfP5xMmQRiLTcBw225Z7/v/b+9+QuQ6zz2P/xrMcLtnHE/cfaOFgnAMmZazSIIQTGZKgomzkMgsAvZgK7SVwBCujW0wAcsb074ZGzNgGYwHy1eCu4qisSK4gkAGpFk4BqmJF8LIizjddzKKMBgs6LbHztCdO5uaRX4v98mb87equqvq1PcDRXdXnTrnVNc5bz31nud9XgyoaRAtSZf9czscdG1cdu9v3+t43wftlgfgnfFjJz3I5o8167so6Wk/Z7+kV33/rZKDIz2+Lem6Bwrtdm9S+oJAdQ6gWlX7subzdT20Hx+FsRMbfvx6SPF6NXwYPuznfakiB7lp+3TKf4+6p2db0mdU5wB2xTADl3tuk5bcU/0Pkh4pKGSw7L8PFgxwftLt2Jw7DB7w/Wng8umSgcv7PNj4R5J+FToEFt1epbEaZU5IesP7827JfmNI/boFJlCTyQswHabx+ENzvL8YJ46/bit7f2NOdF7qsqhEbZtOrnjVKuYWr2RxSYpT9mc9z3mpzbj9VHozVTS7kj32itffy66cJXlPdHx+2X5jcP02PdEAAADTZNiBy/kcEz+rWPbxMDj5urf75YqxGPn4jc2QhqasgMKH/nnAPdJNKoG1KcCAAUxrEL3mGQN36hYEAAAza9iByw/5vjS4+LGC9SQvhAHIc65B/7ssMI7ywgpVg593nGb23YapHNgD0xpEAwAA1Bl24HK06PUUueEJlNJ6Vh2Ib0v6wPnIcmCdcqLTuKnj/vsRB/Wp1zl3Q9IPS/YNY0AQDQAAumyYgctXnJax7YF4f+ee4PmskMGGq16k9fRcJGFH0puhckcc4JwGLp8qeE6RDz1AsEkqR5WyAgwYQJPE/KLHUrHyosLlKigZNQ5NBiBWvU7sPgb+dFtV+3KloI3Y63Zj0EkWJk3VQKEm7WBX0b502zS+v/mAvzYGGQiJ3dP5gYXkTgOT7eExfoHt0iQLVWgHgfHJByaeGbBMZs+93G8M8FzskjZBdFmx8ibygyh+SBUVJ0/LXwyXOAaRemDu9c/VsK3VkPt0gvqswJ77VNL/lPTjil7SokkOUvvwN2GSgpVwfsdenrztiWWumkyyUNU+pXXlJauu+pb2I293krJJFqrE/UnPySdPiJM0nPVI/qp2sGjdq+H1Ahjcjr/EDjvj6VqoJY0J0SaILitW3sRDzjGa8+jTo278q4qTS9JvRnzQ7Pd2jrgH7IDzjy66oPkgBzaAwf13/0wzAkZlkxwkhyT9O5/PP3Oe34JH4qeBOs+GtueIe4GWG06ysOzlj5S0T2X2Oag97rYttTsLku72etMkC0+VTLJQZNETTKWe8/PeRtHkCWmShick/VO2nrwdXA7Bfnqt+wu2DwAImgbR825Uz/tb1XuSztU9qcSWG/Ytl5VJI1HTKNn94YPkVs262rrm7axXzFwGYO+k8361oCd2zUFiunSZtwfpfN70F+Er/vsjP54mHEiDcN7zoJxUE/YTP7fMkpd/L+xnr6IEVXKnZL07kp5zoH7Q96UyVZck3ROC9SYuVMw49nHFaytqBw/6y0d8rQCACk2D6Lpi5XVSQ59fUlVJcfIURJfVdhzUqNcHYHhrIWCO6iY5aHo+X/fzt93epLasbpKFvM3La7qWicH5moPW1MbFVLZjXq7vgPaBmv3ZkvQTp571a9ItqiZZKPq/DdO+A5Nm2gcuT+uMgjM3wLlpEF1VrLzssfuzv18K6RxPh/zjouLkZYXJAXTTJUk/kPSNcF+bSQ7KfBrSH9LtQsNJFvJ2LZ9dLN5f1Tt9IRu4mDoRzoXX1jRXcsPLzTk4b5Je0kTTLyTANGHg8uTo5ADnpkF0XbHyj8Jj8kH7cLiMmn87+cw9MGXFyTv1TQVArQ1JP3W91CJVkxyU2comOUgD+XoNJ1nYlPQtt3dpIOJa+JL/oH8edg5ykbzn63Ovd929vykXfKXB4MKi8lajSnmL+zM/wP8amDTTMHC5aPv5QGGVDHBW6HFP98dyvWUDl+PA47/3LWYHrDYo5sAAZ2saRKumWPlL/uBJlyzXPWAmDQh808/p+wPkvD+kqoqT75VtB/VU5wDG63I21qJqkoOmXvVzUrt0OrRLdZMsbPjx6yE14tXwYfiwn/elijEWl8P2tz1t70aYZOGMHzvVoOzVhqRfhhSQo6FdHnbyhC2/7uuSfu3caGDaTfLA5bLt5wOFqwowPBmqdlwLMyGmgcunSwYup4HHP5L0q9AhsNhgSnEGOGf6dQsAu4jjr9t4f6fT6h7nju4Wjr9uK3t/Y9nJXtZbWnZcp8dS73L6QppfAUpX1lMvcOx9TqUvB5kUJe5bvHq/kvXGptzi/VnPc15qM24/ld7M/x/psVe8/l6D834x224U9zvfTi/riU7L5e9V0Wtt03Gylzo/2QoAoF689Nv3B/SrdU8CpsCkDlyu235UVIDhyxVjMfLxG5vZWLM48PhD/zzgHum6KcUZ4BwQRAMA4oDFuS4OAMJMm8SBy222X1SA4XcVRRjySkJVg593nGb23QapHAkDnI0gGgAAdNkkDlyOqrZfVoBhO9v+8ZATveme6NT7/kiYk6PIDUk/LNm3HAOcA4JoAADQdZM2cLlq+3GgcFUBhjdDNYs4wDkNXD7VsGjDh55Yqi6VQwxw/ktNEvOLHosJ9RqiqPgkiwMFqgwyiAB/wsCfbqtqX65kbUa/wbk2CoOc1+M+x6va46avZxbRvnQb7+8/ywfytTHu9q3MpA9w7qvmQ65pEN0LNQ5VMLq16yb1AJwGNILdVhdEx8AvXg6dBJN0Xle1xyhH+9Jts/z+5gMTbw7YPqQO0Elod/MBzpNcmUNtg+j4hp0NH4BlAXP+AdQr+MfkPSh5iZarvqVvV2XFueM/ftBvYkWKStbkhdVjj9ootz0rZrkRnAVtgmiVlHMqalDj/fl5F9uJ2EZd9H0PFpzXP84+iPLz+t+2aM/K2qmm8ufHtvemB0fVvZ68nUpWwnpeGXD/pgntS7fx/mKcWpW4S6MvF5wwf8x/Nykqvuwi5EcKioVX2edcoOMeAZuKcy9Iujt82L3u3KOiouKj9IBHos55tOxJ5zM94w+0lQZJ+QDK3ZB0j8/x5ZJJBhZLiv0rfJmf8+NPh1Hpv/H9v862+YCkf+XHTjugzs/r/xOWr2vPiiYRaKpX0M4dcD7jRU9c8I9etur15O3UvPfjB/6/fEfS1wu2DwBoqGkQPe+G/bwT09/LEvQ/cZJ5mSUnrb8XRq32KkquJHdK1rsj6TkH6gd9XyrLcil8CI/anfBloUkCPoDBHQ4jylO7sV/SX2XLXfBt3oNc0rmZvsinMlBlI8jvuN2Qe53vceBapq49u+b71ytmMmwitnNFql5PUTt12AN20oyJ50ueDwBooGkQvVBTBLuuqHj+3LyGYZkYnK/5wykVHI/pI8fCSNF198RU7c+g6r4sABhOPklA0SQDfywp9l/XTpXVIG17Xte1Z8PUOq1q53JtX8/9BfcBXcTA5XpV2xzH/kylpkH0dkWD3aSoeP7c/IMy3l/VO33BlygX3OOUDtJzoWD5nIuAl/XeAJhc92WzXBVNMrBVUuy/qp2qEjsB6togtWjPBlXWzg1rVLVcgWlxJLQdB52GNarzqcyOJytaU3Mx/XUSTNr+TKymQfSOP6hSbt0h9xApXM6sKiq+KelbWQHttXCZ9UH/POw86CL5nPefe72xOHdajgF+wPRZdjuS0sbKJhn4Rkmx/x23Oak9SYOT/03BtqJ9oRPgcM2kBGrQng2jrJ0bhfj/XJyGiQyAEdrwmIcUx2jMA5dfl3TCX5p3c+ByXsVjpWT7sZBD3J+ef38rew3KevzPzmIFoaZBtEIx7W0fhKfDY3VFxTf8+PXQw/SqP/Re8+CbflYsPHc5FDXf9jSVKbfvGX/D7PtD+Jk9/gaVZge6QPAOtHI9NO7rbidSD07ZJAPvVxT7zyc/eDEMxCvzW6+j77YtTUoQz+t/HZYva89Goayd25b0mVNY6r4UlEmztq37NV2tewLQMbM4cPkhx2Nzvmp21Pfn24+FHOL+yMH2G97uu2GWxCfdXqcrgmnGxJnSr1sA2EUcf9026e/vrOb+zUot/0k//jCcsve3rIRmPN+LymmedZBa1KNaluucn0t5adyrWc9tLONblBPdK9ivK96vuJ3Fhj2/+dWtJN9+3M98f2JvfFpfvv2m+9MlrUrcAQCmV7xEnK4WXqh7EtAhszhwOZ3jMQWlSNV+xnEqSZPxI51HEA1gls3SAJq1MMhqLqTbAbNiVgcuvxTSOZ4eUW/x5ojGgUw1gmgAANB1szpweTVL2/qsZc94mS1JH4T86OOzmBNNEI0uyRsLtJMu9/M/BP4S7ctwxtG+MHBZetPb7Xub50PVtKLtt/FmeF+rCkN0WlVi/l4kiTcd2BMbsDzxvq1ll2nph9vNhq91t/8veRJ/mbLBAtNmFAN/en7/rkr6m4bHE/5cLJs0yg+5QdqXokFBvex8bbqP0xT4NGnXdrv96Rral8mw1+3LpGga33RB09ilSyZiYOEgOYlrLma+U7dghTuhhM2cv/n9nA+nqbQm6TtuUA9J+s8tj6dZlkaSv+jjfxL1XPIpna9pEpJRfhhPglG0axg92pfBTUP7gsHk9afPjKG88ERo0lNUV+S77P5YiDt9Q1muKep9VtIr2XNWsm+xsccmfyNT71X6Blj22NWCgHk17H/c9/S64rZuZv+bfBttxJ7x1YJyMv1sm71sv1RSnH0ajKInIf3/egVli1Bt3udbPK5GGZw2aV+UnUdnQ090WSm2vIen6DzJ2w1VnCfxfM8nDYjnZzw3e25Hbkr6e9/i+b/asj1I7dq9Je1tUfuDarQv4zWu9gXYC617oouKfPfC/QuS7g7B5cthVOh5F+ZWTVHvx52TNOcegCeds/OCpMcKSjKlIuRpv86ED5cHPLJ2zs8/WdP4ve3Xcq/3/Xwoqn5E0gHnM12U9Kh70Z8Nhczz7Tex6JmDTnsdUc/7vOTH/sFJ/Gv+X7zg/+9ySdH4WZFGUq/5+KA3r7kdSc/5fzhO8Tw+L+mY/z4g6SseBBTFK1hl50neblSdJ2WTBuTn55rbhtSO7HNb8CNJvwqDjhbdlqxrcHl7W9T+YPfRvgxuUtoXYFe0DaKv+aRYL0kgjyfMAc8MlD5ELoSSSncqRoemHmpJuiTpaxU5NvP+oEmjbd/zbDppJOyd8OH7dsk6iuy4oUwBe1kpl9R7ntadtp/K2TSx5BqQ8TWnmpBroeSOPEK4SBzxm6Zh309vCaZE0Xl8LjxeV2d12PNkv9uZS17uSmjfis7Pr7h9k6SPw77dcCfCvAP1j4a8tFnX3gIAxqhtEF1UI3HNjf12dqmmqrZh26LeZeazwuSpBE1S9+Gbi+uKl303a0q3pBHA2+5JryrInqv6P+WpIj8rWU4lReMXBEy+ukkM7q35YjrsefLlitqt+fmZf6GO7VUqW3XAPdJtvrgXGaQmLQBgj7QNostcyAb89Apm2WkqBn91RcZ3sg+a1KM1qPsdhC84B/FIKFBe1hP0aTZAca7lLGBV/6eH/HPB632sZDlVFI0HJl3VJAYfuvf4sP7cogPnxRGcJ7+rqMGan59VkyXsOBXtuyNI5QAATLhRBNF5qbXP/cGTahAeDMudlfRXJetJjoXnPOie7rJgMPU8p1znQy5SnudPNtFz3uEl/aWyIuJ5sfE4AKWpD138/Lj/fqTki8OiX2eRsqLxpHNgGuz4alY8jx8Pj533JAlxEOLLJekSg5wn2xWTBqR2LJ6fVZMl3JD0wxGkcgAAJtwogujLofj4tntiNvwB8owH2vVDkfE/1qzvoqel7Hu9qcj4LV+mzUf2pse3fXn2qYaDGPaFIut97+ejYd/PhzSNfxlynbcd9KZyeHnx9dOhmHsTO5Jec5DQl/R/Q6/cFffMb7t3++9CrvNtD85crSgaz+AXTIs0mcG224rT4bE1n9fp+N52kJrGWFSdJ7HdqDpPyiYNSO3YqYbn1oduK4ZN5SiTtz8AgDGapBIxPXpQZ05+/P1HBzHohklqX5oaZtKAWZpcYRrQvnTbNLYv6I6+JuwgJIiePfH4+1v38P1vPug6Y5LalzL5wMRBazCnnuw26VzYXbQv3TYN7Qu6a+KCaMyedPz9rWuGp0DmH/mg6wTaF4wT7Uu30b5gnAiiMXb9gg84Pui6g/YF40T70m20Lxin/pwPwnymPGCv9CX9P0n/ouTxzZaT10y6dyT9h7qFOob2BeNC+9J9tC8YF3qiMXZ1PUX76laAiVbVvix6AF96vwcdzDdKkzYwcLWgIlHCGJJ6tC/dRvyCcSKIxtil468oZ5EPuOlX1r6kADoGiCsTEkhPkqogGvVoX7qN+AXjRBCNsYvHXxw9zwdcN5S1L8uSrmZVMFJg3SvoEY69run3Vwp6sPNKG6lSRtreVS//XwsC+NVsu/m64vK9cH/ar7T8xWzbTcT1pdezkm275/2/6e086J/3+udqWH61ZN2zNhET7Uu3Eb9gnPqjmGwFGJX/Iuk/Sfr3ku7ULYyplqbzXg/B5pZnBmwyWdHjnthpzss/6fuf9UQsc56d8EwI1Pd5spXjkn4p6WgIfo8WTJDyUFjXkpdZ9PrOeP0LYbvJb8J+NbHoCaYO+nnnvY8XPE35Y/5dfg2PSnpC0j9l69nv/Tni2VeXve7VsK/7C7Y/K2hfAIwUQTQmzf/gA24m7DgQPBJmBm3Te5t6lCXpkqSvSfqqn5+C4ffCTKPycbXp3zclfUXSAd/ucUBfZsv7u+X1vev1p2nJe+4RlmdJHMaFEDTnPg6vIXfN+7MeZlw86NlN477OMtoXACNDEA1gnNbc+zrngO+FhhOd3PYU2EVSUL7tHuv7fP8nIQBNPeFLkg5L+sABcpQC2TzAT+tLNiV9Gv6+rXa2JP3EU3n3a9Itql530XbzfQUAjAhBNIBx6GV5u8oC21weDN4XUimWJH3Rv38a0iLSrahXd8c9tw9Kur8glSN5KaRzPO0APw9W4/YHtSHpm97WtSw9ZBhtA3oAQEME0QDGIeVCx/SNQ5K+FXqLH3BAnHKWo2N+TA6E1yT9L/coP+L7lz0IryxF5IZzh3slqRx5ZYzPvG+b3s9D3reT3v4nBetooqis3rApIcm6v3DEfQUAjABBNIBx2AoVMVK6xBkPmtvw7bRTM37tnN7oonuG+x4s96rvf9V/9x1Anq4Y4Pehc5vXClI5JOlNB519B87nvdyGpKe8bym1Im1/EBse6LjpbR2VdNmP3ZL0syHK3G25N73s/wgAGAIlYjBOHH/dthvvL5OMDG61II2my3bj+MPk4P3FOFHiDgA6LKW0pN7+/UP2mgMAAr7JYZw4/rqN9xfjxPHXbby/GCd6ogEAAIC2CKIBAACAlgiiAYzDosu6FU2ssujZCHs1y+VSpY9RDDosKjtXJC+DBwCYEXfVLQAAU2Be0t2uHb1Rt3ADG5K+X7cQAGB20RMNYBLMuwe5L+nlmmVibelV3/+apFNhEpe4vn7FhCtlYk90z7+/5XXd9OMrkl4cso4zAGBKEUQDmARpmusFT2pyrGLZ/V7uiGccPCDpx5LO+b61bH1HPJFLk5SQMickveH1vetZES9IekHSYyVTiwMAOox0DgDjNu/A+LykHc+qd65i+Wtebl3SbwseL1rfu5IOD5HqcdXb2/H27697AoA9QZk7jA1BNIBxW5B0X91Cwe2ax/P17Uj6qGL5Jm6HKb4BTI65ugWAXUKdaABjt90gMG4jX1/qmQYAYGQIogGMW0qROOmA95Ckx+ueVCH1PMf1fUvSjbonAgDQFEE0gElw2T+3Hfyerlm+zqv+uS3puqSnhsiHrnKL6hwAMJvmSMrHBCCnrbv6vL8YI46/buP9xTj108BCDkKMC1/iAADA1CGdAwAAAGiJIBoAAABoiSAaAAAAaIkgGgAAAGiJIBoAAABoiSAaAAAAaIkgGgAAzKpVl1qNt5uSluueWGFe0llJvYplFiW9NcR2VnxblvSKt4k9RhANAABm2QueLyPdTkv68RCB6Y6kJySt1S04oGVJ3/BMrxuS3pf0UN2TMHoE0QAAoIsW3SO8WLdg5oakeyQt+O9l9073JV3J1rcSeq9fcc923hMde7vT4y9LOiHp515/ek5aLj13WdJV39K2H5H0Cwfr8v1HB3idGBJBNAAAwD87LOkzSdsOTF+X9JR7qdccAM87wP2BpIOSviPp6wXr6kna74B8QdLdkg5Iel7SRUmPujf5WUkfeRtHJJ0JqR77JL0o6bj/3i9pPWxjy889WLB97CKCaAAA0CU99+ZuSnrcP/vuNS7yYpYTfdJB7k4ITFPQein0Uh+WdN1B8Jak8yXrT3YkPeflo0Xv89v++z1J70pa8t93/Brk+z53gB/dknSfsKdGFUSTmA8AACbBmnt0lySd8885SRdKlk850Qte/ryD4uRYCMTXJT3gdd5fsr5oTdI1B71VgbwckPe97OMhKP4kC6K/ULEO7KFRBdEiMR8AAEyxHUmvSTqVdeCdc4Cd4ptvOm64VbGu6EII0o+WdA5+6l7vGEcVBf2b7onGBGgSRJOYDwAAps2WO+Nir3KdDXcCnnRMse4e4UN+fCXEETecv7zsv08WrG/FMUvyeehVTrYkfeC4RCFeKgq2N90TvaA/d7+k2wXLYxc1CaIHRWI+AACYNlccOD/k2OAZxxN991I/4/s3JP3UscQFd9TlLjveSGka7/t5246RUifgq2G5dQfyRVfii2KVxYKYBnukX3J/L/ToxltRPk9RTnTsbe5lfy87l3mx4FvaSkFPdM+/56khMSd60dtI39zi81NPdAqoy3KgV2rylTB6ZccfuoH3F+PE8ddtk/T+pphjL2KIPIYhdhmPflVPNIn5AAAAxWJn47Z7iMtipFGK47ji+C7ssbvqFhhASsz/ufNz0uWIcx5omHKQk1sNA+kLvs17/bcLLl2kxPy8fExevYPEfAAAMIzU2TgOMVh/rmI57KImOdEk5gMAAABBkyB6UCTmAwAAoLNIzP8TEvPHY5KOP4we7y/GieOv20bx/q5mV7qVFT/YbU221WSZKquhSEP+WjG4yoGFe4XEfAAAMIs2JH2/ZcpsGymldS1cma+aCRotjeKbHDAojr9u4/3FOHH8dVvd+9tksri6nuj0e9FEbj2noN4MZXhjx2AszZvK8Kb7U3neuK18wriV7HlXwj4VTV6X78+9vuIeiyuUlfhFexPREw0AADCpHnCZ3TmX8z0ZgtB9nvDtCU8C94LHW6XCBc/655Ohmsc1rzP3UJgwbsmzKMtjyC6GlNOyyeuU7c9f+74PwzbS7weEoRFEAwCALkm9wZueL2Iz9OwO4o4riUnS29ljH4dqYYcl/d6B6o7ny9jv29ckXfJyVyT9VtXKKqOlggipCMIlSfeEoP3jbE6MP2SlhXd835IwtFEF0XWXQ3Zbk201WaYKifkAAEy+tpPF1fmkoKxuctvjuZLHw8Rw112l7MtOraiT9i9PG8mVTV6nbH/SZHPYJaMKoseNxHwAANDWrYL7liR9seD+JtLszel2XNLvHIg38VL4AvB0wWRx8heDhbCNbxZMMifmvdh9TYLoJon5dSYhMf91SSf8Ta9tYv73wmUY+ffvkZgPAMDEajJZ3G39EBaqAAANiklEQVRJD4dgdd45z2sDdMzFyePkq9Zn3TMcJ4M7XpITvZqlnHxW0ANeNXldblPS3VmsMu/7ynrW0UKTIHpUSMwHZlOfG7cx3YA6a44F1n3MpFK7L9U9scCGpBfDunqSnnce8puhg/BLJTnRbzo26jvIPe9AftM94yndo2zyulxRrJJ+jzENhlDW0MTe4HgrSsyvy4ledu9u+nbWy3qd47eolaz3OS27P/Q8y8sX9UTnU4QX7U++zarHynKgU440hsMHXbfx/mKcOP66bVrf3zzO2E15DEPsMjqVJe5IzP8TEvMBAMCg8jTTMxW9x6MWx3H1svswpFGlc5CYDwAA8Jd2nB5aF2/slpdCYYRB0lRQokkQTWI+ifkAAAAImgTRTZCYDwAAgJlCYn49EvN3z7Qef2iG9xfjxPHXbaN4f1dbFFFIZXZ7BcUT8sncVnxblvQKJXE7qXJg4aQhMR8AAIxaPg6rSRGFqkneliV9Q9JlL/e+y++ig0bxTQ4YFMdft/H+Ypw4/rqt7v1tMllcUYneKHbgnS3oif5qmAQuXR3Pr1Y32Q9Mn6nqiQYAANhLabK3BY+xOpY9/knBZG77Pa4r2fI4sYNCpxBEAwCALkkFCDY970SaE6Ioz1kuZhDzoW+6p3neAfF5Fzd4z+VxqyxJ+jyb+0IuBcy8Ex0zyiB6MVzSSJc99jqRnkR/AABmW9vJ4vKc6FTHeWGAwHdJ0hfqFkI3jCqIXvTBeT4chNckvTZBgSqJ/gAAoKntASZc23RPNGZAkyC6SUL8cR9ol8N96fc0ocmyL5H0s9J0PfcYv5VdRlG4JBOfk5L8U9L+op8bZyW8V9Lrkk44uF/0JC2/8CUZeX1HSfQHJl5RCaqb2TnfVt6OFClqW9rgyhcwXk0mi6uy4w7Bkz5/Dzk9pMqme6IXsvvvHyAgx4RrEkTXmXcwei0EqArTXK75w+h1SafdS70m6eXwoXJC0hs+6N51wLvoKbsP+jnnHaw3QaI/0C355dbTkn48RGAa26fdwJUvYHrkOdH9ULEjdQhuO5g+XfD8fDK3PLZYLIhB0AFVQXTbxPyqb1hLkj51768kXZL0lTDz31UfXOlbX5ELDeo2liHRH5hMTa50Fbkh6Z7Q21N2pUtus1Lv9Sv+cMx7olezD895f9E/IennYZBRrFWfnrvsNuxq2DZXvoDp8FJBjei5MONy+sI955/P+ct3rBO95U6+4/79kqTvhS/5xx3bDNojjglVFUS3TcyvCkaX/C0t2XRvcXK7IMDdkvQTf4ANO1CRRH+gWw5L+sztRrrS9VTBla5lST9wr9B3JH29YF099xIt+Ha3v+A/76tZj/oD81n3MM1JOuIJn1Kqxz73ZqWrZVz5AmZXvPoUr0qhY0aRzpF6j48WBLmp4Pime6KTJect19nwKNk0UPFZ/aUm6yLRH5gsba905ZdbTzrI3QmBaQpaL4Ve6sOSrrst2XJaWJUd9zRtZPcvep/f9t/vOfVsyX/f8WsQV74AhKvnG25TYrorOqJJEN0kMf+KPxxizt+KP3TWQ75Q6qV5RNLvJX1Ysj6VlKi7FX5/0D8PuxeoCon+wGRpe6Ur5UQvePnzWZt0LATi65Ie8DrvL1lftOYv6ds1gbwckPe97OMhKP4kC6K58gUAHdckiG5iyx88J7OeopWQL/SMpFMhl/D5mm9mG5J+GT4Yj/pyyI5L5z3s+78k6bcFzyfRH+iedP6fyiprnHOAndd5jV+8q1wIQfrRkqodn4aBznMVQT9XvgBgRvTrFuiIvMzUSk2PE/bGrBx/s2oU7+9qGCmfrIRxEmmip154LA3wS4P+lsNy+cDClbD+ebcTaflY4i7uRxrI2Cu4alY2WHK1JDjH7hnF8YfJNar3l8niMIj+qHqipwGJ/kB3xBSydKXrjD8AT/nvLZ/3P/UVpwsOqHOXfVUqpWm87+dte/Biqs7xalhu3aWuikrkFQ0i5MoXMJmYLA5DGdU3OWAQHH/dNknvb+p93osrUFz5mgyTdPxh9Ore3yYlNFcKep7zEph7MVlc6n3+augVT8/Lr2I1eV3YfTPVEw1g9sQPsm33EA9ab74NrnwBk4/J4jCUu+oWAIAplqqAjEMM1p+rWA7AaPVcSSdJU3U/VvIluu1kcf+tYrK4oopAaZuDpIfUlczcrVlX0QA90QAAoEvaltBksjgMhCAaAADMIiaLw1AIogFMuqISd0UloHZLk201WaZK+sDuFbxWAINhsjjsKoJoAKi2Ien7NR/Ew0ij7tdCfiP1pIG9wWRxGEpdiRhgN3H8dVvd+9ukVFNdT3T6/Wz4EExBaM8Df26GvMRYsSPmKsYJF84WlJ6KJarS81ey58VJXspKYsX9uTdM7hJfG5MpjEbd8YfpNivvLyUzJxMl7gB0wgPOO5yT9IJ7ktIHzj5Jj/qy7gE/fjBcHk25ik+GAUnXvM7cQ+4VSoOWjvr+vCTV65KeKimJFffnr31fvDScfk+j/wHMNkpmTiiCaADjkHqDN11+ajP07A7ijqQb/v3t7LGPvX45BzHlM+64fut+377m8lVy73HRZdaoLN8yXXZNl1ovSbonBO1xf5Yk/aGgRu0f/BgAyKkdFxxQP1eTToI9QhANYBzalqCq80kITHN5CarH/XfftWTvk/TlBqPkFfYvTxvJHQtfDNbdq52C4rg/VaW1AAATjCAawKSLo9qTvHZrGy84YE+345J+l9V+rfJS+ALwdJbPnJxzz3Paxjfdg5RjdD0ATCmCaADj1KQE1W2PZk/B6rxzntcGqJhxQ9KRsK5VD/DblvSBy1fJgXVRTvRqlnLyWUEP+Lp7mA/575VscGG0KenubBDhvO8r61kHAEwAgmgAk27Ng/TWnR6x7cF9L9U9scCGpBfDumK5qjdDrnZZ6ak3QymsTedUbxWUpHpG0hkvd8p/FwX8RYMI0+9VdWgBABNgVkrEYDJx/HXbtL6/vYre41HLJ1hZrci1RjvTevyhGd5fjFNfHIQYM46/bpuW9zev/3yzJNd5tzBj4e6YluMPg+H9xTgRRGPsOP66jfcX48Tx1228vxgnJlsBAAAA2iKIBgAAAFoiiAYw6VZDrnK8Fc1uuOgBgT3nNL/l++LvyYpvy5JeycrMAQBQiSAawDTIJ0hpMrvhhqTvl5SWW5b0DUmXvdz7kh4qWA4AgEIE0QDGadFVMYYpJRcra7wc7k+9z1+V9LqkEw68Fz2pyi9cH1ruvT465H4AAGYIQTSAafesfy548pNj2eOfeLKTiyEFZL8nXEm2PIHLQQEA0ABBNIBxSDMDbkp63D/L8pzlWQZjPnSq4zzvgPi8e5Xfk3SuZB3JkqTPPfNhdMvTdQMAUOsuSe9QaxFj9E7dAuikNec1LzoF4/mS3OXkhZJpvhcHCHyXJH2hbiEAAKrcJenbdQsBwITalnS7bqHMpnuiAQAYGOkcAMZpS9ITNb3QVXYkXZN00qkdh5weUmXTPdEL2f33DxCQAwBmFEE0gGmQ50T3XT9aLlMn90qflHS64Pmbkr4YyuLlgwgXCwYbAgAAAGMxqeMt8glWVioGNWJ6Terxh9Hg/cU49emJBjCL4gQrceIVAAAAYOzoKcI4cfx1G+8vxomeaAAAAKAtgmgAAACgJYJoANNgUdKVUJnjbBgUuFeWJb3lfYm/J2lwYj5oEQDQQQTRACbdokvTnfcsh3OuDf3aBAWqcXBiHLQIAOgogmgA47ToXuXYo5s77klQYvWM9Psh/1yWdNO91FfC+nruMX7Lj930sumxfvacee9Pz8ss+rnpOZJ0r6TXJZ1wcL8o6RFJv/DkL/L6jta8LgDAFCOIBjDJ5h2MXgsBqvz7E5LWHKi+7klW5nzfy6GX+oSkNzxD4bsOeBclPe0JV+bcy328ZB9yn0h6RtLFUFs6n6hlq2BCFwBAhxBEAxiH1Au86Wm6N/132YQnVdNxL0n61L2/knRJ0lckHfDfVx3gpinCi1wIsxm2tSTpc8+YGN2SdF/JcwAAU44gGsA4rLkHeEnSOf+cqwhkq4LRJU/pnWy6tzi5XRDgbkn6iaSfj2Cg4pKkL9QtBADoFoJoAJMs9R4fLQhyV92jveme6GTJect1NiR9MwxUfLZgmSbr2nRPNIC99U4Y18CN217f3iGIBjBOW85t3qpY5op7omO1ixUH0OsOYr8YcpofkfR7SR+WrE8lJepuhd8f9M/Dkvap2qZ7ohey+++vSUMBMJxvh4o93Ljt9e3bBNEAJt2Wg+aToQfgpO/b8u0ZSaf8WE/S89lAxNyGpF+GXOyjrvix49J5D/v+L0n6bcHzU+Ce0k/yQYSLBYMNAQAAgEb6dQt0RD7BykrFIEnsnVk5/gCMAT3RADC8OMFKnHgFAAAAaI2eQIwTxx+AXUNPNAAAANASQTQAAADQEkE0AAAA0BJBNAAAANASQTQAAADQEkE0AAAA0BJBNAAAANASQTQAAADQEkE0AAAA0BJBNAAAANASQTQAAADQEkE0AAAA0BJBNAAAANASQTQAAADQEkE0AAAA0BJBNAAAANASQTQAAADQEkE0AAAA0BJBNAAAANDSXXULAMAQ3pHUr1sI2CXv1C0AAAAAAAAAAAAAAAAAAOiE/w+nnHHtV0aPXgAAAABJRU5ErkJggg==;" vertex="1" parent="1">
                    <mxGeometry x="20" y="70" width="721" height="744" as="geometry"/>
                </mxCell>
                <mxCell id="3" value="&lt;span style=&quot;background-color: rgb(51 , 153 , 255)&quot;&gt;A role is assigned to each user (SQL server)&lt;/span&gt;" style="shape=note2;boundedLbl=1;whiteSpace=wrap;html=1;size=25;verticalAlign=top;align=center;labelBackgroundColor=none;fontColor=#ffffff;fillColor=#3399FF;strokeColor=none;" vertex="1" parent="1">
                    <mxGeometry x="210" y="90" width="120" height="120" as="geometry"/>
                </mxCell>
                <mxCell id="4" value="" style="endArrow=none;dashed=1;html=1;strokeColor=#121212;entryX=0;entryY=0.5;entryDx=0;entryDy=0;entryPerimeter=0;" edge="1" parent="1" target="3">
                    <mxGeometry width="50" height="50" relative="1" as="geometry">
                        <mxPoint x="180" y="150" as="sourcePoint"/>
                        <mxPoint x="230" y="100" as="targetPoint"/>
                    </mxGeometry>
                </mxCell>
                <mxCell id="5" value="" style="endArrow=none;dashed=1;html=1;strokeColor=#121212;endSize=6;strokeWidth=1;" edge="1" parent="1" target="3">
                    <mxGeometry width="50" height="50" relative="1" as="geometry">
                        <mxPoint x="180" y="370" as="sourcePoint"/>
                        <mxPoint x="240" y="370" as="targetPoint"/>
                        <Array as="points">
                            <mxPoint x="270" y="370"/>
                        </Array>
                    </mxGeometry>
                </mxCell>
                <mxCell id="6" value="&lt;span style=&quot;background-color: rgb(51 , 153 , 255)&quot;&gt;A category is assigned to each course (SQL server)&lt;/span&gt;" style="shape=note2;boundedLbl=1;whiteSpace=wrap;html=1;size=25;verticalAlign=top;align=center;labelBackgroundColor=none;fontColor=#ffffff;fillColor=#3399FF;strokeColor=none;" vertex="1" parent="1">
                    <mxGeometry x="520" y="820" width="120" height="120" as="geometry"/>
                </mxCell>
                <mxCell id="7" value="" style="endArrow=none;dashed=1;html=1;strokeColor=#121212;" edge="1" parent="1">
                    <mxGeometry width="50" height="50" relative="1" as="geometry">
                        <mxPoint x="400" y="810" as="sourcePoint"/>
                        <mxPoint x="519" y="880" as="targetPoint"/>
                        <Array as="points">
                            <mxPoint x="400" y="880"/>
                        </Array>
                    </mxGeometry>
                </mxCell>
                <mxCell id="8" value="" style="endArrow=none;dashed=1;html=1;strokeColor=#121212;entryX=0;entryY=0.5;entryDx=0;entryDy=0;entryPerimeter=0;sourcePerimeterSpacing=6;exitX=0.661;exitY=-0.005;exitDx=0;exitDy=0;exitPerimeter=0;" edge="1" parent="1" source="6">
                    <mxGeometry width="50" height="50" relative="1" as="geometry">
                        <mxPoint x="600" y="814" as="sourcePoint"/>
                        <mxPoint x="600" y="783.9999999999999" as="targetPoint"/>
                    </mxGeometry>
                </mxCell>
                <mxCell id="9" value="&lt;span style=&quot;background-color: rgb(51 , 153 , 255)&quot;&gt;The information of each course is recorded (SQL server)&lt;/span&gt;" style="shape=note2;boundedLbl=1;whiteSpace=wrap;html=1;size=25;verticalAlign=top;align=center;labelBackgroundColor=none;fontColor=#ffffff;fillColor=#3399FF;strokeColor=none;" vertex="1" parent="1">
                    <mxGeometry x="520" y="390" width="120" height="120" as="geometry"/>
                </mxCell>
                <mxCell id="10" value="" style="endArrow=none;dashed=1;html=1;strokeColor=#121212;entryX=0.008;entryY=0.265;entryDx=0;entryDy=0;entryPerimeter=0;" edge="1" parent="1" target="9">
                    <mxGeometry width="50" height="50" relative="1" as="geometry">
                        <mxPoint x="460" y="420" as="sourcePoint"/>
                        <mxPoint x="521" y="417" as="targetPoint"/>
                        <Array as="points"/>
                    </mxGeometry>
                </mxCell>
                <mxCell id="11" value="" style="endArrow=none;dashed=1;html=1;strokeColor=#121212;entryX=0.45;entryY=0.991;entryDx=0;entryDy=0;entryPerimeter=0;" edge="1" parent="1" target="9">
                    <mxGeometry width="50" height="50" relative="1" as="geometry">
                        <mxPoint x="460" y="600" as="sourcePoint"/>
                        <mxPoint x="520.96" y="601.8" as="targetPoint"/>
                        <Array as="points">
                            <mxPoint x="574" y="600"/>
                        </Array>
                    </mxGeometry>
                </mxCell>
                <mxCell id="12" value="&lt;span style=&quot;background-color: rgb(51 , 153 , 255)&quot;&gt;The data of each inscription is recorded (SQL server)&lt;/span&gt;" style="shape=note2;boundedLbl=1;whiteSpace=wrap;html=1;size=25;verticalAlign=top;align=center;labelBackgroundColor=none;fontColor=#ffffff;fillColor=#3399FF;strokeColor=none;" vertex="1" parent="1">
                    <mxGeometry x="120" y="830" width="130" height="90" as="geometry"/>
                </mxCell>
                <mxCell id="13" value="" style="endArrow=none;dashed=1;html=1;strokeColor=#121212;entryX=0;entryY=0.5;entryDx=0;entryDy=0;entryPerimeter=0;sourcePerimeterSpacing=6;exitX=0.159;exitY=-0.01;exitDx=0;exitDy=0;exitPerimeter=0;" edge="1" parent="1" source="12">
                    <mxGeometry width="50" height="50" relative="1" as="geometry">
                        <mxPoint x="140.00000000000006" y="805.3999999999999" as="sourcePoint"/>
                        <mxPoint x="140.68" y="770" as="targetPoint"/>
                    </mxGeometry>
                </mxCell>
                <mxCell id="14" value="" style="endArrow=none;dashed=1;html=1;strokeColor=#121212;entryX=0;entryY=0.5;entryDx=0;entryDy=0;entryPerimeter=0;sourcePerimeterSpacing=6;exitX=1.018;exitY=0.666;exitDx=0;exitDy=0;exitPerimeter=0;" edge="1" parent="1" source="12">
                    <mxGeometry width="50" height="50" relative="1" as="geometry">
                        <mxPoint x="350" y="869.1000000000001" as="sourcePoint"/>
                        <mxPoint x="350.01" y="810" as="targetPoint"/>
                        <Array as="points">
                            <mxPoint x="350" y="890"/>
                        </Array>
                    </mxGeometry>
                </mxCell>
            </root>
        </mxGraphModel>
    </diagram>
</mxfile>